<?xml version="1.0" encoding="utf-8"?>
<!-- Generator: Adobe Illustrator 28.3.0, SVG Export Plug-In . SVG Version: 6.00 Build 0)  -->
<svg version="1.1" id="Layer_1" xmlns="http://www.w3.org/2000/svg" xmlns:xlink="http://www.w3.org/1999/xlink" x="0px" y="0px"
	 viewBox="0 0 1100 280" style="enable-background:new 0 0 1100 280;" xml:space="preserve">
<style type="text/css">
	.st0{fill:#FFFFFF;}
</style>
<g>
	<g>
		<path class="st0" d="M141.34,0C63.28,0,0,62.68,0,140s63.28,140,141.34,140s141.34-62.68,141.34-140S219.4,0,141.34,0z
			 M209.11,154.48H100.18l-57.6,49.2L85.91,97.75h129.4l25.53,28.98L209.11,154.48z"/>
	</g>
	<g>
		<g>
			<path class="st0" d="M705.09,212.62H535.45l63.1-144.69h62.55L614.11,174.8h107.41L705.09,212.62z"/>
			<path class="st0" d="M716.92,212.62l30.32-71.14l-37.15-73.55h70.2l16.39,32.16l46.43-32.16h70.2l-103.25,73.55l-30.05,71.14
				H716.92z"/>
			<g>
				<path class="st0" d="M577.11,94.78c-1-4.6-2.73-8.93-5.19-12.99c-2.46-4.06-5.83-7.88-10.11-10.68
					c-4.28-2.79-9.7-2.78-16.25-2.78l-155.36-0.4l-58.24,144.69h62.82l22.94-53.86h92.05c7.46,0,15.25-1.26,23.35-3.79
					c8.1-2.52,15.52-6.09,22.26-10.69c6.73-4.6,12.29-10.05,16.66-16.37c4.37-6.31,6.56-13.26,6.56-20.83
					C578.61,103.48,578.11,99.37,577.11,94.78z M502.75,124.47h-53.1l-28.08,23.98l21.12-51.64h63.08l12.45,14.13L502.75,124.47z"/>
			</g>
			<path class="st0" d="M1098.5,93.98c-1-4.6-2.73-8.93-5.19-12.99c-2.46-4.06-5.83-7.48-10.11-10.28
				c-4.28-2.79-9.7-2.39-16.25-2.39l-153.97-0.4l-59.62,144.69h62.82l22.94-54.66l75.88,54.66h67.94l-68.31-54.66h16.54
				c7.46,0,15.25-1.26,23.35-3.79c8.1-2.52,15.52-6.09,22.26-10.69c6.73-4.6,12.29-10.05,16.66-16.37
				c4.37-6.31,6.56-13.26,6.56-20.83C1100,102.68,1099.5,98.58,1098.5,93.98z M1024.13,123.67h-53.1l-28.08,23.98l21.12-51.64h63.08
				l12.45,14.13L1024.13,123.67z"/>
		</g>
	</g>
</g>
</svg>
